Metropolis-Regular Italic.ufo
<glyph name="numbersign" format="1">
  <advance width="675"/>
  <unicode hex="0023"/>
  <outline>
    <contour>
      <point x="120" y="0" type="line"/>
      <point x="436" y="687" type="line"/>
      <point x="369" y="687" type="line"/>
      <point x="53" y="0" type="line"/>
    </contour>
    <contour>
      <point x="336" y="0" type="line"/>
      <point x="652" y="687" type="line"/>
      <point x="585" y="687" type="line"/>
      <point x="269" y="0" type="line"/>
    </contour>
    <contour>
      <point x="536" y="179" type="line"/>
      <point x="564" y="240" type="line"/>
      <point x="50" y="240" type="line"/>
      <point x="22" y="179" type="line"/>
    </contour>
    <contour>
      <point x="659" y="446" type="line"/>
      <point x="687" y="507" type="line"/>
      <point x="171" y="507" type="line"/>
      <point x="144" y="446" type="line"/>
    </contour>
  </outline>
</glyph>
<glyph name="ampersand" format="1">
  <advance width="669"/>
  <unicode hex="0026"/>
  <outline>
    <contour>
      <point x="374" y="-12"/>
      <point x="502" y="130"/>
      <point x="622" y="313" type="curve"/>
      <point x="561" y="348" type="line"/>
      <point x="467" y="187"/>
      <point x="340" y="55"/>
      <point x="212" y="55" type="curve" smooth="yes"/>
      <point x="146" y="55"/>
      <point x="96" y="90"/>
      <point x="96" y="152" type="curve" smooth="yes"/>
      <point x="96" y="242"/>
      <point x="180" y="308"/>
      <point x="298" y="347" type="curve" smooth="yes"/>
      <point x="425" y="394"/>
      <point x="537" y="441"/>
      <point x="537" y="562" type="curve" smooth="yes"/>
      <point x="537" y="637"/>
      <point x="483" y="695"/>
      <point x="401" y="695" type="curve" smooth="yes"/>
      <point x="291" y="695"/>
      <point x="195" y="614"/>
      <point x="195" y="498" type="curve" smooth="yes"/>
      <point x="195" y="452"/>
      <point x="213" y="408"/>
      <point x="245" y="358" type="curve" smooth="yes"/>
      <point x="306" y="263"/>
      <point x="363" y="179"/>
      <point x="504" y="-5" type="curve"/>
      <point x="578" y="24" type="line"/>
      <point x="446" y="196"/>
      <point x="379" y="282"/>
      <point x="311" y="383" type="curve" smooth="yes"/>
      <point x="279" y="430"/>
      <point x="269" y="471"/>
      <point x="269" y="505" type="curve" smooth="yes"/>
      <point x="269" y="575"/>
      <point x="327" y="628"/>
      <point x="398" y="628" type="curve" smooth="yes"/>
      <point x="439" y="628"/>
      <point x="463" y="600"/>
      <point x="463" y="561" type="curve" smooth="yes"/>
      <point x="463" y="471"/>
      <point x="368" y="435"/>
      <point x="255" y="398" type="curve" smooth="yes"/>
      <point x="123" y="351"/>
      <point x="22" y="274"/>
      <point x="22" y="144" type="curve" smooth="yes"/>
      <point x="22" y="47"/>
      <point x="98" y="-12"/>
      <point x="206" y="-12" type="curve" smooth="yes"/>
    </contour>
  </outline>
</glyph>
<glyph name="quotesingle" format="1">
  <advance width="233"/>
  <unicode hex="0027"/>
  <outline>
    <contour>
      <point x="175" y="429" type="line"/>
      <point x="192" y="478"/>
      <point x="241" y="626"/>
      <point x="241" y="638" type="curve" smooth="yes"/>
      <point x="241" y="659"/>
      <point x="226" y="675"/>
      <point x="204" y="675" type="curve" smooth="yes"/>
      <point x="147" y="675"/>
      <point x="142" y="613"/>
      <point x="138" y="544" type="curve" smooth="yes"/>
      <point x="135" y="504"/>
      <point x="133" y="461"/>
      <point x="131" y="429" type="curve"/>
    </contour>
  </outline>
</glyph>
<glyph name="zero" format="1">
  <advance width="690"/>
  <unicode hex="0030"/>
  <outline>
    <contour>
      <point x="506" y="-12"/>
      <point x="658" y="218"/>
      <point x="658" y="440" type="curve" smooth="yes"/>
      <point x="658" y="596"/>
      <point x="572" y="699"/>
      <point x="431" y="699" type="curve" smooth="yes"/>
      <point x="220" y="699"/>
      <point x="67" y="469"/>
      <point x="67" y="248" type="curve" smooth="yes"/>
      <point x="67" y="91"/>
      <point x="153" y="-12"/>
      <point x="294" y="-12" type="curve" smooth="yes"/>
    </contour>
    <contour>
      <point x="202" y="60"/>
      <point x="145" y="136"/>
      <point x="145" y="251" type="curve" smooth="yes"/>
      <point x="145" y="422"/>
      <point x="262" y="627"/>
      <point x="427" y="627" type="curve" smooth="yes"/>
      <point x="523" y="627"/>
      <point x="580" y="552"/>
      <point x="580" y="438" type="curve" smooth="yes"/>
      <point x="580" y="265"/>
      <point x="464" y="60"/>
      <point x="298" y="60" type="curve" smooth="yes"/>
    </contour>
  </outline>
</glyph>
<glyph name="two" format="1">
  <advance width="590"/>
  <unicode hex="0032"/>
  <outline>
    <contour>
      <point x="470" y="0" type="line"/>
      <point x="486" y="74" type="line"/>
      <point x="138" y="74" type="line"/>
      <point x="352" y="228" type="line" smooth="yes"/>
      <point x="471" y="316"/>
      <point x="571" y="411"/>
      <point x="571" y="535" type="curve" smooth="yes"/>
      <point x="571" y="636"/>
      <point x="491" y="699"/>
      <point x="384" y="699" type="curve" smooth="yes"/>
      <point x="279" y="699"/>
      <point x="193" y="651"/>
      <point x="119" y="570" type="curve"/>
      <point x="168" y="520" type="line"/>
      <point x="227" y="584"/>
      <point x="295" y="629"/>
      <point x="378" y="629" type="curve" smooth="yes"/>
      <point x="440" y="629"/>
      <point x="492" y="593"/>
      <point x="492" y="529" type="curve" smooth="yes"/>
      <point x="492" y="438"/>
      <point x="401" y="352"/>
      <point x="304" y="281" type="curve" smooth="yes"/>
      <point x="9" y="65" type="line"/>
      <point x="-3" y="0" type="line"/>
    </contour>
  </outline>
</glyph>
<glyph name="four" format="1">
  <advance width="623"/>
  <unicode hex="0034"/>
  <outline>
    <contour>
      <point x="417" y="0" type="line"/>
      <point x="452" y="167" type="line"/>
      <point x="555" y="167" type="line"/>
      <point x="570" y="238" type="line"/>
      <point x="467" y="238" type="line"/>
      <point x="560" y="687" type="line"/>
      <point x="469" y="687" type="line"/>
      <point x="34" y="232" type="line"/>
      <point x="32" y="167" type="line"/>
      <point x="374" y="167" type="line"/>
      <point x="339" y="0" type="line"/>
    </contour>
    <contour>
      <point x="464" y="593" type="line"/>
      <point x="389" y="238" type="line"/>
      <point x="126" y="238" type="line"/>
    </contour>
  </outline>
</glyph>
<glyph name="five" format="1">
  <advance width="599"/>
  <unicode hex="0035"/>
  <outline>
    <contour>
      <point x="405" y="-12"/>
      <point x="537" y="107"/>
      <point x="537" y="259" type="curve" smooth="yes"/>
      <point x="537" y="366"/>
      <point x="455" y="428"/>
      <point x="344" y="428" type="curve" smooth="yes"/>
      <point x="284" y="428"/>
      <point x="233" y="409"/>
      <point x="191" y="384" type="curve"/>
      <point x="248" y="613" type="line"/>
      <point x="578" y="613" type="line"/>
      <point x="593" y="687" type="line"/>
      <point x="187" y="687" type="line"/>
      <point x="104" y="334" type="line"/>
      <point x="157" y="304" type="line"/>
      <point x="207" y="336"/>
      <point x="263" y="359"/>
      <point x="325" y="359" type="curve" smooth="yes"/>
      <point x="406" y="359"/>
      <point x="457" y="315"/>
      <point x="457" y="247" type="curve" smooth="yes"/>
      <point x="457" y="147"/>
      <point x="363" y="58"/>
      <point x="253" y="58" type="curve" smooth="yes"/>
      <point x="180" y="58"/>
      <point x="123" y="94"/>
      <point x="82" y="152" type="curve"/>
      <point x="23" y="99" type="line"/>
      <point x="67" y="35"/>
      <point x="138" y="-12"/>
      <point x="246" y="-12" type="curve" smooth="yes"/>
    </contour>
  </outline>
</glyph>
<glyph name="less" format="1">
  <advance width="587"/>
  <unicode hex="003C"/>
  <outline>
    <contour>
      <point x="489" y="159" type="line"/>
      <point x="147" y="344" type="line"/>
      <point x="567" y="529" type="line"/>
      <point x="581" y="599" type="line"/>
      <point x="79" y="373" type="line"/>
      <point x="67" y="314" type="line"/>
      <point x="475" y="88" type="line"/>
    </contour>
  </outline>
</glyph>
<glyph name="equal" format="1">
  <advance width="594"/>
  <unicode hex="003D"/>
  <outline>
    <contour>
      <point x="557" y="407" type="line"/>
      <point x="573" y="481" type="line"/>
      <point x="114" y="481" type="line"/>
      <point x="98" y="407" type="line"/>
    </contour>
    <contour>
      <point x="511" y="187" type="line"/>
      <point x="527" y="261" type="line"/>
      <point x="68" y="261" type="line"/>
      <point x="52" y="187" type="line"/>
    </contour>
  </outline>
</glyph>
<glyph name="greater" format="1">
  <advance width="586"/>
  <unicode hex="003E"/>
  <outline>
    <contour>
      <point x="543" y="314" type="line"/>
      <point x="555" y="373" type="line"/>
      <point x="147" y="599" type="line"/>
      <point x="133" y="529" type="line"/>
      <point x="475" y="344" type="line"/>
      <point x="55" y="159" type="line"/>
      <point x="41" y="88" type="line"/>
    </contour>
  </outline>
</glyph>
<glyph name="at" format="1">
  <advance width="882"/>
  <unicode hex="0040"/>
  <outline>
    <contour>
      <point x="439" y="-116"/>
      <point x="511" y="-96"/>
      <point x="599" y="-47" type="curve"/>
      <point x="586" y="-20" type="line"/>
      <point x="504" y="-64"/>
      <point x="440" y="-81"/>
      <point x="358" y="-81" type="curve" smooth="yes"/>
      <point x="193" y="-81"/>
      <point x="76" y="39"/>
      <point x="76" y="193" type="curve" smooth="yes"/>
      <point x="76" y="417"/>
      <point x="307" y="639"/>
      <point x="539" y="639" type="curve" smooth="yes"/>
      <point x="703" y="639"/>
      <point x="820" y="525"/>
      <point x="820" y="378" type="curve" smooth="yes"/>
      <point x="820" y="269"/>
      <point x="750" y="125"/>
      <point x="649" y="125" type="curve" smooth="yes"/>
      <point x="615" y="125"/>
      <point x="595" y="142"/>
      <point x="595" y="173" type="curve" smooth="yes"/>
      <point x="595" y="207"/>
      <point x="651" y="333"/>
      <point x="711" y="481" type="curve"/>
      <point x="645" y="486" type="line"/>
      <point x="618" y="420" type="line"/>
      <point x="605" y="463"/>
      <point x="569" y="501"/>
      <point x="498" y="501" type="curve" smooth="yes"/>
      <point x="358" y="501"/>
      <point x="208" y="349"/>
      <point x="208" y="208" type="curve" smooth="yes"/>
      <point x="208" y="128"/>
      <point x="261" y="78"/>
      <point x="343" y="78" type="curve" smooth="yes"/>
      <point x="412" y="78"/>
      <point x="476" y="116"/>
      <point x="523" y="164" type="curve"/>
      <point x="523" y="111"/>
      <point x="558" y="78"/>
      <point x="620" y="78" type="curve" smooth="yes"/>
      <point x="754" y="78"/>
      <point x="857" y="237"/>
      <point x="857" y="385" type="curve" smooth="yes"/>
      <point x="857" y="548"/>
      <point x="729" y="675"/>
      <point x="549" y="675" type="curve" smooth="yes"/>
      <point x="296" y="675"/>
      <point x="37" y="436"/>
      <point x="37" y="187" type="curve" smooth="yes"/>
      <point x="37" y="16"/>
      <point x="166" y="-116"/>
      <point x="348" y="-116" type="curve" smooth="yes"/>
    </contour>
    <contour>
      <point x="316" y="137"/>
      <point x="283" y="170"/>
      <point x="283" y="223" type="curve" smooth="yes"/>
      <point x="283" y="329"/>
      <point x="389" y="442"/>
      <point x="494" y="442" type="curve" smooth="yes"/>
      <point x="553" y="442"/>
      <point x="582" y="413"/>
      <point x="582" y="365" type="curve" smooth="yes"/>
      <point x="582" y="259"/>
      <point x="485" y="137"/>
      <point x="373" y="137" type="curve" smooth="yes"/>
    </contour>
  </outline>
</glyph>
<glyph name="A" format="1">
  <advance width="755"/>
  <unicode hex="0041"/>
  <outline>
    <contour>
      <point x="551" y="156" type="line"/>
      <point x="566" y="230" type="line"/>
      <point x="147" y="230" type="line"/>
      <point x="132" y="156" type="line"/>
    </contour>
    <component base="V" xOffset="790" yOffset="687" xScale="-1" yScale="-1"/>
    <contour>
      <point x="468" y="687" type="move" name="top"/>
    </contour>
    <contour>
      <point x="669" y="0" type="move" name="bottom"/>
    </contour>
  </outline>
</glyph>
<glyph name="H" format="1">
  <advance width="719"/>
  <unicode hex="0048"/>
  <outline>
    <contour>
      <point x="103" y="0" type="line"/>
      <point x="172" y="335" type="line"/>
      <point x="146" y="313" type="line"/>
      <point x="594" y="313" type="line"/>
      <point x="577" y="335" type="line"/>
      <point x="508" y="0" type="line"/>
      <point x="586" y="0" type="line"/>
      <point x="729" y="687" type="line"/>
      <point x="651" y="687" type="line"/>
      <point x="585" y="365" type="line"/>
      <point x="612" y="387" type="line"/>
      <point x="163" y="387" type="line"/>
      <point x="180" y="365" type="line"/>
      <point x="246" y="687" type="line"/>
      <point x="168" y="687" type="line"/>
      <point x="25" y="0" type="line"/>
    </contour>
  </outline>
</glyph>
<glyph name="K" format="1">
  <advance width="659"/>
  <unicode hex="004B"/>
  <outline>
    <contour>
      <point x="116" y="0" type="line"/>
      <point x="160" y="206" type="line"/>
      <point x="293" y="320" type="line"/>
      <point x="487" y="0" type="line"/>
      <point x="585" y="0" type="line"/>
      <point x="356" y="373" type="line"/>
      <point x="711" y="687" type="line"/>
      <point x="606" y="687" type="line"/>
      <point x="179" y="307" type="line"/>
      <point x="259" y="687" type="line"/>
      <point x="181" y="687" type="line"/>
      <point x="38" y="0" type="line"/>
    </contour>
    <contour>
      <point x="293" y="0" type="move" name="bottom"/>
    </contour>
  </outline>
</glyph>
<glyph name="M" format="1">
  <advance width="854"/>
  <unicode hex="004D"/>
  <outline>
    <contour>
      <point x="118" y="0" type="line"/>
      <point x="227" y="519" type="line"/>
      <point x="384" y="40" type="line"/>
      <point x="737" y="519" type="line"/>
      <point x="628" y="0" type="line"/>
      <point x="706" y="0" type="line"/>
      <point x="849" y="687" type="line"/>
      <point x="770" y="687" type="line"/>
      <point x="415" y="208" type="line"/>
      <point x="260" y="687" type="line"/>
      <point x="183" y="687" type="line"/>
      <point x="40" y="0" type="line"/>
    </contour>
  </outline>
</glyph>
<glyph name="N" format="1">
  <advance width="770"/>
  <unicode hex="004E"/>
  <outline>
    <contour>
      <point x="118" y="0" type="line"/>
      <point x="236" y="559" type="line"/>
      <point x="546" y="0" type="line"/>
      <point x="622" y="0" type="line"/>
      <point x="765" y="687" type="line"/>
      <point x="687" y="687" type="line"/>
      <point x="570" y="128" type="line"/>
      <point x="260" y="687" type="line"/>
      <point x="183" y="687" type="line"/>
      <point x="40" y="0" type="line"/>
    </contour>
    <contour>
      <point x="473" y="687" type="move" name="top"/>
    </contour>
    <contour>
      <point x="331" y="0" type="move" name="bottom"/>
    </contour>
  </outline>
</glyph>
<glyph name="T" format="1">
  <advance width="630"/>
  <unicode hex="0054"/>
  <outline>
    <contour>
      <point x="300" y="0" type="line"/>
      <point x="428" y="613" type="line"/>
      <point x="659" y="613" type="line"/>
      <point x="674" y="687" type="line"/>
      <point x="134" y="687" type="line"/>
      <point x="119" y="613" type="line"/>
      <point x="350" y="613" type="line"/>
      <point x="222" y="0" type="line"/>
    </contour>
    <contour>
      <point x="404" y="687" type="move" name="top"/>
    </contour>
    <contour>
      <point x="253" y="0" type="move" name="bottom"/>
    </contour>
  </outline>
</glyph>
<glyph name="X" format="1">
  <advance width="700"/>
  <unicode hex="0058"/>
  <outline>
    <contour>
      <point x="130" y="687" type="line"/>
      <point x="223" y="687" type="line"/>
      <point x="605" y="0" type="line"/>
      <point x="512" y="0" type="line"/>
    </contour>
    <contour>
      <point x="653" y="687" type="line"/>
      <point x="751" y="687" type="line"/>
      <point x="82" y="0" type="line"/>
      <point x="-16" y="0" type="line"/>
    </contour>
  </outline>
</glyph>
<glyph name="Z" format="1">
  <advance width="640"/>
  <unicode hex="005A"/>
  <outline>
    <contour>
      <point x="530" y="0" type="line"/>
      <point x="546" y="74" type="line"/>
      <point x="128" y="74" type="line"/>
      <point x="657" y="625" type="line"/>
      <point x="669" y="687" type="line"/>
      <point x="155" y="687" type="line"/>
      <point x="140" y="613" type="line"/>
      <point x="546" y="613" type="line"/>
      <point x="17" y="62" type="line"/>
      <point x="6" y="0" type="line"/>
    </contour>
    <contour>
      <point x="411" y="687" type="move" name="top"/>
    </contour>
  </outline>
</glyph>
<glyph name="bracketleft" format="1">
  <advance width="367"/>
  <unicode hex="005B"/>
  <outline>
    <contour>
      <point x="240" y="-115" type="line"/>
      <point x="251" y="-58" type="line"/>
      <point x="81" y="-58" type="line"/>
      <point x="234" y="677" type="line"/>
      <point x="404" y="677" type="line"/>
      <point x="416" y="734" type="line"/>
      <point x="180" y="734" type="line"/>
      <point x="4" y="-115" type="line"/>
    </contour>
  </outline>
</glyph>
<glyph name="c" format="1">
  <advance width="544"/>
  <unicode hex="0063"/>
  <outline>
    <contour>
      <point x="335" y="-12"/>
      <point x="403" y="13"/>
      <point x="465" y="65" type="curve"/>
      <point x="420" y="120" type="line"/>
      <point x="373" y="76"/>
      <point x="324" y="55"/>
      <point x="272" y="55" type="curve" smooth="yes"/>
      <point x="191" y="55"/>
      <point x="122" y="127"/>
      <point x="122" y="213" type="curve" smooth="yes"/>
      <point x="122" y="348"/>
      <point x="229" y="462"/>
      <point x="357" y="462" type="curve" smooth="yes"/>
      <point x="405" y="462"/>
      <point x="456" y="438"/>
      <point x="480" y="404" type="curve"/>
      <point x="539" y="451" type="line"/>
      <point x="500" y="497"/>
      <point x="431" y="529"/>
      <point x="371" y="529" type="curve" smooth="yes"/>
      <point x="193" y="529"/>
      <point x="44" y="382"/>
      <point x="44" y="208" type="curve" smooth="yes"/>
      <point x="44" y="89"/>
      <point x="142" y="-12"/>
      <point x="259" y="-12" type="curve" smooth="yes"/>
    </contour>
    <contour>
      <point x="357" y="517" type="move" name="top"/>
    </contour>
    <contour>
      <point x="256" y="0" type="move" name="bottom"/>
    </contour>
  </outline>
</glyph>
<glyph name="e" format="1">
  <advance width="568"/>
  <unicode hex="0065"/>
  <outline>
    <contour>
      <point x="322" y="-12"/>
      <point x="425" y="17"/>
      <point x="480" y="66" type="curve"/>
      <point x="440" y="119" type="line"/>
      <point x="402" y="84"/>
      <point x="329" y="55"/>
      <point x="265" y="55" type="curve" smooth="yes"/>
      <point x="173" y="55"/>
      <point x="117" y="116"/>
      <point x="117" y="210" type="curve" smooth="yes"/>
      <point x="117" y="334"/>
      <point x="215" y="462"/>
      <point x="354" y="462" type="curve" smooth="yes"/>
      <point x="421" y="462"/>
      <point x="471" y="432"/>
      <point x="471" y="382" type="curve" smooth="yes"/>
      <point x="471" y="328"/>
      <point x="414" y="297"/>
      <point x="314" y="297" type="curve"/>
      <point x="107" y="297" type="line"/>
      <point x="93" y="230" type="line"/>
      <point x="300" y="230" type="line"/>
      <point x="454" y="230"/>
      <point x="545" y="295"/>
      <point x="545" y="386" type="curve" smooth="yes"/>
      <point x="545" y="475"/>
      <point x="457" y="529"/>
      <point x="360" y="529" type="curve" smooth="yes"/>
      <point x="197" y="529"/>
      <point x="43" y="376"/>
      <point x="43" y="204" type="curve" smooth="yes"/>
      <point x="43" y="75"/>
      <point x="130" y="-12"/>
      <point x="252" y="-12" type="curve" smooth="yes"/>
    </contour>
    <contour>
      <point x="358" y="517" type="move" name="top"/>
    </contour>
    <contour>
      <point x="252" y="-12" type="move" name="bottom"/>
    </contour>
  </outline>
</glyph>
<glyph name="j" format="1">
  <advance width="225"/>
  <unicode hex="006A"/>
  <outline>
    <contour>
      <point x="219" y="611"/>
      <point x="246" y="637"/>
      <point x="246" y="665" type="curve" smooth="yes"/>
      <point x="246" y="690"/>
      <point x="228" y="710"/>
      <point x="202" y="710" type="curve" smooth="yes"/>
      <point x="172" y="710"/>
      <point x="147" y="683"/>
      <point x="147" y="656" type="curve" smooth="yes"/>
      <point x="147" y="631"/>
      <point x="165" y="611"/>
      <point x="192" y="611" type="curve" smooth="yes"/>
    </contour>
    <component base="jdotless"/>
  </outline>
</glyph>
<glyph name="k" format="1">
  <advance width="545"/>
  <unicode hex="006B"/>
  <outline>
    <contour>
      <point x="462" y="0" type="line"/>
      <point x="302" y="280" type="line"/>
      <point x="585" y="517" type="line"/>
      <point x="487" y="517" type="line"/>
      <point x="133" y="221" type="line"/>
      <point x="115" y="127" type="line"/>
      <point x="240" y="229" type="line"/>
      <point x="371" y="0" type="line"/>
    </contour>
    <component base="ascender" xOffset="-8"/>
    <contour>
      <point x="234" y="0" type="move" name="bottom"/>
    </contour>
  </outline>
</glyph>
<glyph name="o" format="1">
  <advance width="632"/>
  <unicode hex="006F"/>
  <outline>
    <contour>
      <point x="437" y="-12"/>
      <point x="588" y="135"/>
      <point x="588" y="309" type="curve" smooth="yes"/>
      <point x="588" y="428"/>
      <point x="488" y="529"/>
      <point x="370" y="529" type="curve" smooth="yes"/>
      <point x="193" y="529"/>
      <point x="44" y="382"/>
      <point x="44" y="208" type="curve" smooth="yes"/>
      <point x="44" y="89"/>
      <point x="142" y="-12"/>
      <point x="258" y="-12" type="curve" smooth="yes"/>
    </contour>
    <contour>
      <point x="191" y="55"/>
      <point x="122" y="127"/>
      <point x="122" y="213" type="curve" smooth="yes"/>
      <point x="122" y="348"/>
      <point x="229" y="462"/>
      <point x="356" y="462" type="curve" smooth="yes"/>
      <point x="440" y="462"/>
      <point x="510" y="389"/>
      <point x="510" y="303" type="curve" smooth="yes"/>
      <point x="510" y="168"/>
      <point x="401" y="55"/>
      <point x="272" y="55" type="curve" smooth="yes"/>
    </contour>
    <contour>
      <point x="366" y="517" type="move" name="top"/>
    </contour>
  </outline>
</glyph>
<glyph name="r" format="1">
  <advance width="389"/>
  <unicode hex="0072"/>
  <outline>
    <contour>
      <point x="185" y="388"/>
      <point x="286" y="462"/>
      <point x="403" y="462" type="curve"/>
      <point x="412" y="529" type="line"/>
      <point x="285" y="529"/>
      <point x="183" y="453"/>
      <point x="160" y="342" type="curve"/>
      <point x="164" y="287" type="line"/>
    </contour>
    <component base="idotless" xOffset="8"/>
    <contour>
      <point x="280" y="517" type="move" name="top"/>
    </contour>
  </outline>
</glyph>
<glyph name="s" format="1">
  <advance width="495"/>
  <unicode hex="0073"/>
  <outline>
    <contour>
      <point x="325" y="-12"/>
      <point x="425" y="70"/>
      <point x="425" y="168" type="curve" smooth="yes"/>
      <point x="425" y="226"/>
      <point x="384" y="262"/>
      <point x="280" y="294" type="curve" smooth="yes"/>
      <point x="200" y="324"/>
      <point x="168" y="345"/>
      <point x="168" y="369" type="curve" smooth="yes"/>
      <point x="168" y="423"/>
      <point x="222" y="462"/>
      <point x="298" y="462" type="curve" smooth="yes"/>
      <point x="343" y="462"/>
      <point x="394" y="445"/>
      <point x="434" y="415" type="curve"/>
      <point x="478" y="469" type="line"/>
      <point x="427" y="507"/>
      <point x="361" y="529"/>
      <point x="301" y="529" type="curve" smooth="yes"/>
      <point x="179" y="529"/>
      <point x="92" y="457"/>
      <point x="92" y="354" type="curve" smooth="yes"/>
      <point x="92" y="298"/>
      <point x="135" y="263"/>
      <point x="242" y="232" type="curve" smooth="yes"/>
      <point x="318" y="207"/>
      <point x="349" y="185"/>
      <point x="349" y="155" type="curve" smooth="yes"/>
      <point x="349" y="101"/>
      <point x="285" y="55"/>
      <point x="210" y="55" type="curve" smooth="yes"/>
      <point x="157" y="55"/>
      <point x="98" y="78"/>
      <point x="52" y="118" type="curve"/>
      <point x="5" y="67" type="line"/>
      <point x="58" y="17"/>
      <point x="133" y="-12"/>
      <point x="207" y="-12" type="curve" smooth="yes"/>
    </contour>
    <contour>
      <point x="308" y="517" type="move" name="top"/>
    </contour>
    <contour>
      <point x="200" y="0" type="move" name="bottom"/>
    </contour>
  </outline>
</glyph>
<glyph name="u" format="1">
  <advance width="592"/>
  <unicode hex="0075"/>
  <outline>
    <component base="n" xOffset="592" yOffset="517" xScale="-1" yScale="-1"/>
    <contour>
      <point x="353" y="517" type="move" name="top"/>
    </contour>
    <contour>
      <point x="458" y="0" type="move" name="bottom"/>
    </contour>
  </outline>
</glyph>
<glyph name="w" format="1">
  <advance width="833"/>
  <unicode hex="0077"/>
  <outline>
    <contour>
      <point x="225" y="0" type="line"/>
      <point x="451" y="413" type="line"/>
      <point x="501" y="0" type="line"/>
      <point x="572" y="0" type="line"/>
      <point x="854" y="517" type="line"/>
      <point x="772" y="517" type="line"/>
      <point x="556" y="100" type="line"/>
      <point x="502" y="517" type="line"/>
      <point x="437" y="517" type="line"/>
      <point x="209" y="100" type="line"/>
      <point x="167" y="517" type="line"/>
      <point x="89" y="517" type="line"/>
      <point x="154" y="0" type="line"/>
    </contour>
    <contour>
      <point x="470" y="517" type="move" name="top"/>
    </contour>
  </outline>
</glyph>
<glyph name="y" format="1">
  <advance width="593"/>
  <unicode hex="0079"/>
  <outline>
    <contour>
      <point x="133" y="-180"/>
      <point x="190" y="-149"/>
      <point x="244" y="-61" type="curve" smooth="yes"/>
      <point x="600" y="517" type="line"/>
      <point x="517" y="517" type="line"/>
      <point x="256" y="87" type="line"/>
      <point x="165" y="517" type="line"/>
      <point x="84" y="517" type="line"/>
      <point x="200" y="-2" type="line"/>
      <point x="155" y="-63" type="line"/>
      <point x="128" y="-99"/>
      <point x="102" y="-112"/>
      <point x="66" y="-112" type="curve" smooth="yes"/>
      <point x="48" y="-112"/>
      <point x="27" y="-109"/>
      <point x="11" y="-100" type="curve"/>
      <point x="-15" y="-162" type="line"/>
      <point x="7" y="-173"/>
      <point x="34" y="-180"/>
      <point x="66" y="-180" type="curve" smooth="yes"/>
    </contour>
    <contour>
      <point x="346" y="517" type="move" name="top"/>
    </contour>
  </outline>
</glyph>
<glyph name="braceleft" format="1">
  <advance width="399"/>
  <unicode hex="007B"/>
  <outline>
    <contour>
      <point x="270" y="-113" type="line"/>
      <point x="180" y="-99"/>
      <point x="150" y="-84"/>
      <point x="150" y="-37" type="curve" smooth="yes"/>
      <point x="150" y="12"/>
      <point x="190" y="137"/>
      <point x="190" y="183" type="curve" smooth="yes"/>
      <point x="190" y="225"/>
      <point x="170" y="250"/>
      <point x="135" y="264" type="curve"/>
      <point x="191" y="282"/>
      <point x="221" y="314"/>
      <point x="234" y="377" type="curve" smooth="yes"/>
      <point x="263" y="521" type="line" smooth="yes"/>
      <point x="279" y="600"/>
      <point x="310" y="626"/>
      <point x="433" y="644" type="curve"/>
      <point x="432" y="697" type="line"/>
      <point x="275" y="680"/>
      <point x="222" y="635"/>
      <point x="200" y="531" type="curve" smooth="yes"/>
      <point x="171" y="391" type="line" smooth="yes"/>
      <point x="157" y="325"/>
      <point x="122" y="293"/>
      <point x="50" y="293" type="curve"/>
      <point x="44" y="238" type="line"/>
      <point x="101" y="238"/>
      <point x="124" y="223"/>
      <point x="124" y="182" type="curve" smooth="yes"/>
      <point x="124" y="138"/>
      <point x="85" y="8"/>
      <point x="85" y="-42" type="curve" smooth="yes"/>
      <point x="85" y="-114"/>
      <point x="133" y="-152"/>
      <point x="259" y="-166" type="curve"/>
    </contour>
  </outline>
</glyph>
<glyph name="bar" format="1">
  <advance width="278"/>
  <unicode hex="007C"/>
  <outline>
    <contour>
      <point x="100" y="-74" type="line"/>
      <point x="270" y="743" type="line"/>
      <point x="210" y="743" type="line"/>
      <point x="40" y="-74" type="line"/>
    </contour>
  </outline>
</glyph>
<glyph name="braceright" format="1">
  <advance width="400"/>
  <unicode hex="007D"/>
  <outline>
    <contour>
      <point x="128" y="-149"/>
      <point x="181" y="-103"/>
      <point x="202" y="0" type="curve" smooth="yes"/>
      <point x="232" y="141" type="line" smooth="yes"/>
      <point x="246" y="208"/>
      <point x="282" y="238"/>
      <point x="353" y="238" type="curve"/>
      <point x="359" y="293" type="line"/>
      <point x="302" y="293"/>
      <point x="279" y="309"/>
      <point x="279" y="349" type="curve" smooth="yes"/>
      <point x="279" y="398"/>
      <point x="317" y="519"/>
      <point x="317" y="572" type="curve" smooth="yes"/>
      <point x="317" y="645"/>
      <point x="269" y="683"/>
      <point x="144" y="697" type="curve"/>
      <point x="132" y="644" type="line"/>
      <point x="223" y="630"/>
      <point x="253" y="614"/>
      <point x="253" y="569" type="curve" smooth="yes"/>
      <point x="253" y="534"/>
      <point x="212" y="393"/>
      <point x="212" y="349" type="curve" smooth="yes"/>
      <point x="212" y="307"/>
      <point x="233" y="281"/>
      <point x="267" y="268" type="curve"/>
      <point x="211" y="249"/>
      <point x="182" y="217"/>
      <point x="169" y="154" type="curve" smooth="yes"/>
      <point x="140" y="11" type="line" smooth="yes"/>
      <point x="123" y="-70"/>
      <point x="90" y="-95"/>
      <point x="-31" y="-113" type="curve"/>
      <point x="-30" y="-166" type="line"/>
    </contour>
  </outline>
</glyph>
<glyph name="cent" format="1">
  <advance width="544"/>
  <unicode hex="00A2"/>
  <outline>
    <contour>
      <point x="273" y="-74" type="line"/>
      <point x="411" y="589" type="line"/>
      <point x="333" y="589" type="line"/>
      <point x="195" y="-74" type="line"/>
    </contour>
    <component base="c"/>
  </outline>
</glyph>
<glyph name="Oslash" format="1">
  <advance width="808"/>
  <unicode hex="00D8"/>
  <outline>
    <contour>
      <point x="96" y="0" type="line"/>
      <point x="840" y="687" type="line"/>
      <point x="753" y="687" type="line"/>
      <point x="9" y="0" type="line"/>
    </contour>
    <component base="O"/>
  </outline>
</glyph>
<glyph name="ae" format="1">
  <advance width="940"/>
  <unicode hex="00E6"/>
  <outline>
    <contour>
      <point x="329" y="-12"/>
      <point x="460" y="88"/>
      <point x="485" y="210" type="curve"/>
      <point x="506" y="312" type="line" smooth="yes"/>
      <point x="532" y="437"/>
      <point x="480" y="529"/>
      <point x="336" y="529" type="curve" smooth="yes"/>
      <point x="289" y="529"/>
      <point x="225" y="517"/>
      <point x="143" y="480" type="curve"/>
      <point x="166" y="417" type="line"/>
      <point x="217" y="441"/>
      <point x="274" y="465"/>
      <point x="329" y="465" type="curve" smooth="yes"/>
      <point x="438" y="465"/>
      <point x="447" y="388"/>
      <point x="433" y="318" type="curve" smooth="yes"/>
      <point x="409" y="206" type="line"/>
      <point x="393" y="125"/>
      <point x="302" y="54"/>
      <point x="213" y="54" type="curve" smooth="yes"/>
      <point x="129" y="54"/>
      <point x="87" y="89"/>
      <point x="100" y="150" type="curve" smooth="yes"/>
      <point x="113" y="215"/>
      <point x="191" y="262"/>
      <point x="270" y="262" type="curve" smooth="yes"/>
      <point x="338" y="262"/>
      <point x="399" y="251"/>
      <point x="450" y="231" type="curve"/>
      <point x="456" y="283" type="line"/>
      <point x="400" y="307"/>
      <point x="331" y="325"/>
      <point x="261" y="325" type="curve" smooth="yes"/>
      <point x="152" y="325"/>
      <point x="49" y="259"/>
      <point x="29" y="159" type="curve" smooth="yes"/>
      <point x="6" y="52"/>
      <point x="70" y="-12"/>
      <point x="197" y="-12" type="curve" smooth="yes"/>
    </contour>
    <component base="e" xOffset="372"/>
  </outline>
</glyph>
<glyph name="divide" format="1">
  <advance width="594"/>
  <unicode hex="00F7"/>
  <outline>
    <contour>
      <point x="534" y="297" type="line"/>
      <point x="550" y="371" type="line"/>
      <point x="91" y="371" type="line"/>
      <point x="75" y="297" type="line"/>
    </contour>
    <contour>
      <point x="305" y="118"/>
      <point x="333" y="147"/>
      <point x="333" y="179" type="curve" smooth="yes"/>
      <point x="333" y="205"/>
      <point x="314" y="226"/>
      <point x="286" y="226" type="curve" smooth="yes"/>
      <point x="256" y="226"/>
      <point x="226" y="202"/>
      <point x="226" y="166" type="curve" smooth="yes"/>
      <point x="226" y="139"/>
      <point x="245" y="118"/>
      <point x="275" y="118" type="curve" smooth="yes"/>
    </contour>
    <contour>
      <point x="371" y="442"/>
      <point x="401" y="470"/>
      <point x="401" y="502" type="curve" smooth="yes"/>
      <point x="401" y="528"/>
      <point x="381" y="550"/>
      <point x="353" y="550" type="curve" smooth="yes"/>
      <point x="323" y="550"/>
      <point x="293" y="526"/>
      <point x="293" y="490" type="curve" smooth="yes"/>
      <point x="293" y="463"/>
      <point x="312" y="442"/>
      <point x="342" y="442" type="curve" smooth="yes"/>
    </contour>
  </outline>
</glyph>
<glyph name="dcroat" format="1">
  <advance width="657"/>
  <unicode hex="0111"/>
  <outline>
    <contour>
      <point x="687" y="585" type="line"/>
      <point x="698" y="635" type="line"/>
      <point x="388" y="635" type="line"/>
      <point x="377" y="585" type="line"/>
    </contour>
    <component base="d"/>
  </outline>
</glyph>
<glyph name="lslash" format="1">
  <advance width="309"/>
  <unicode hex="0142"/>
  <outline>
    <contour>
      <point x="292" y="354" type="line"/>
      <point x="306" y="429" type="line"/>
      <point x="48" y="309" type="line"/>
      <point x="34" y="234" type="line"/>
    </contour>
    <component base="l" xOffset="43"/>
  </outline>
</glyph>
<glyph name="OE" format="1">
  <advance width="1032"/>
  <unicode hex="0152"/>
  <outline>
    <contour>
      <point x="459" y="0" type="line"/>
      <point x="474" y="72" type="line"/>
      <point x="363" y="72" type="line" smooth="yes"/>
      <point x="234" y="72"/>
      <point x="140" y="152"/>
      <point x="140" y="273" type="curve" smooth="yes"/>
      <point x="140" y="444"/>
      <point x="310" y="615"/>
      <point x="481" y="615" type="curve" smooth="yes"/>
      <point x="587" y="615" type="line"/>
      <point x="602" y="687" type="line"/>
      <point x="491" y="687" type="line" smooth="yes"/>
      <point x="278" y="687"/>
      <point x="62" y="488"/>
      <point x="62" y="271" type="curve" smooth="yes"/>
      <point x="62" y="111"/>
      <point x="186" y="0"/>
      <point x="353" y="0" type="curve" smooth="yes"/>
    </contour>
    <component base="E" xOffset="405"/>
  </outline>
</glyph>
<glyph name="caron" format="1">
  <advance width="398"/>
  <unicode hex="02C7"/>
  <outline>
    <contour>
      <point x="299" y="576" type="line"/>
      <point x="430" y="713" type="line"/>
      <point x="370" y="713" type="line"/>
      <point x="272" y="627" type="line"/>
      <point x="213" y="713" type="line"/>
      <point x="158" y="713" type="line"/>
      <point x="229" y="576" type="line"/>
    </contour>
    <contour>
      <point x="290" y="704" type="move" name="top"/>
    </contour>
    <contour>
      <point x="251" y="517" type="move" name="_top"/>
    </contour>
  </outline>
</glyph>
<glyph name="dotaccent" format="1">
  <advance width="218"/>
  <unicode hex="02D9"/>
  <outline>
    <contour>
      <point x="210" y="597"/>
      <point x="235" y="621"/>
      <point x="235" y="647" type="curve" smooth="yes"/>
      <point x="235" y="670"/>
      <point x="218" y="689"/>
      <point x="193" y="689" type="curve" smooth="yes"/>
      <point x="166" y="689"/>
      <point x="143" y="664"/>
      <point x="143" y="639" type="curve" smooth="yes"/>
      <point x="143" y="616"/>
      <point x="159" y="597"/>
      <point x="185" y="597" type="curve" smooth="yes"/>
    </contour>
    <contour>
      <point x="202" y="704" type="move" name="top"/>
    </contour>
    <contour>
      <point x="55" y="0" type="move" name="bottom"/>
    </contour>
    <contour>
      <point x="163" y="517" type="move" name="_top"/>
    </contour>
  </outline>
</glyph>
<glyph name="tilde" format="1">
  <advance width="380"/>
  <unicode hex="02DC"/>
  <outline>
    <contour>
      <point x="378" y="575"/>
      <point x="415" y="615"/>
      <point x="441" y="691" type="curve"/>
      <point x="396" y="704" type="line"/>
      <point x="378" y="656"/>
      <point x="355" y="633"/>
      <point x="327" y="633" type="curve" smooth="yes"/>
      <point x="288" y="633"/>
      <point x="273" y="699"/>
      <point x="211" y="699" type="curve" smooth="yes"/>
      <point x="159" y="699"/>
      <point x="122" y="659"/>
      <point x="96" y="583" type="curve"/>
      <point x="141" y="570" type="line"/>
      <point x="158" y="618"/>
      <point x="182" y="641"/>
      <point x="210" y="641" type="curve" smooth="yes"/>
      <point x="249" y="641"/>
      <point x="264" y="575"/>
      <point x="326" y="575" type="curve" smooth="yes"/>
    </contour>
    <contour>
      <point x="283" y="704" type="move" name="top"/>
    </contour>
    <contour>
      <point x="244" y="517" type="move" name="_top"/>
    </contour>
  </outline>
</glyph>
<glyph name="perthousand" format="1">
  <advance width="1175"/>
  <unicode hex="2030"/>
  <outline>
    <contour>
      <point x="144" y="0" type="line"/>
      <point x="756" y="687" type="line"/>
      <point x="688" y="687" type="line"/>
      <point x="75" y="0" type="line"/>
    </contour>
    <contour>
      <point x="643" y="-10"/>
      <point x="730" y="90"/>
      <point x="730" y="198" type="curve" smooth="yes"/>
      <point x="730" y="275"/>
      <point x="682" y="334"/>
      <point x="598" y="334" type="curve" smooth="yes"/>
      <point x="491" y="334"/>
      <point x="404" y="232"/>
      <point x="404" y="126" type="curve" smooth="yes"/>
      <point x="404" y="46"/>
      <point x="456" y="-10"/>
      <point x="537" y="-10" type="curve" smooth="yes"/>
    </contour>
    <contour>
      <point x="493" y="44"/>
      <point x="467" y="77"/>
      <point x="467" y="126" type="curve" smooth="yes"/>
      <point x="467" y="202"/>
      <point x="525" y="280"/>
      <point x="597" y="280" type="curve" smooth="yes"/>
      <point x="641" y="280"/>
      <point x="669" y="247"/>
      <point x="669" y="199" type="curve" smooth="yes"/>
      <point x="669" y="128"/>
      <point x="614" y="44"/>
      <point x="538" y="44" type="curve" smooth="yes"/>
    </contour>
    <contour>
      <point x="336" y="349"/>
      <point x="423" y="447"/>
      <point x="423" y="557" type="curve" smooth="yes"/>
      <point x="423" y="635"/>
      <point x="375" y="693"/>
      <point x="291" y="693" type="curve" smooth="yes"/>
      <point x="185" y="693"/>
      <point x="98" y="593"/>
      <point x="98" y="484" type="curve" smooth="yes"/>
      <point x="98" y="407"/>
      <point x="146" y="349"/>
      <point x="230" y="349" type="curve" smooth="yes"/>
    </contour>
    <contour>
      <point x="187" y="403"/>
      <point x="159" y="437"/>
      <point x="159" y="486" type="curve" smooth="yes"/>
      <point x="159" y="556"/>
      <point x="216" y="639"/>
      <point x="290" y="639" type="curve" smooth="yes"/>
      <point x="334" y="639"/>
      <point x="361" y="605"/>
      <point x="361" y="556" type="curve" smooth="yes"/>
      <point x="361" y="481"/>
      <point x="303" y="403"/>
      <point x="231" y="403" type="curve" smooth="yes"/>
    </contour>
    <contour>
      <point x="1023" y="-10"/>
      <point x="1110" y="90"/>
      <point x="1110" y="198" type="curve" smooth="yes"/>
      <point x="1110" y="275"/>
      <point x="1062" y="334"/>
      <point x="978" y="334" type="curve" smooth="yes"/>
      <point x="871" y="334"/>
      <point x="784" y="232"/>
      <point x="784" y="126" type="curve" smooth="yes"/>
      <point x="784" y="46"/>
      <point x="836" y="-10"/>
      <point x="917" y="-10" type="curve" smooth="yes"/>
    </contour>
    <contour>
      <point x="873" y="44"/>
      <point x="847" y="77"/>
      <point x="847" y="126" type="curve" smooth="yes"/>
      <point x="847" y="202"/>
      <point x="905" y="280"/>
      <point x="977" y="280" type="curve" smooth="yes"/>
      <point x="1021" y="280"/>
      <point x="1049" y="247"/>
      <point x="1049" y="199" type="curve" smooth="yes"/>
      <point x="1049" y="128"/>
      <point x="994" y="44"/>
      <point x="918" y="44" type="curve" smooth="yes"/>
    </contour>
  </outline>
</glyph>
<glyph name="euro" format="1">
  <advance width="683"/>
  <unicode hex="20AC"/>
  <outline>
    <contour>
      <point x="468" y="236" type="line"/>
      <point x="481" y="303" type="line"/>
      <point x="-15" y="303" type="line"/>
      <point x="-28" y="236" type="line"/>
    </contour>
    <contour>
      <point x="502" y="403" type="line"/>
      <point x="516" y="470" type="line"/>
      <point x="20" y="470" type="line"/>
      <point x="6" y="403" type="line"/>
    </contour>
    <component base="C"/>
  </outline>
</glyph>
